<svg width="153" height="83" viewBox="0 0 153 83" fill="none" xmlns="http://www.w3.org/2000/svg">
<path d="M100.375 28.6667H96.5625V21.0476C96.5625 10.5333 88.0225 2 77.5 2C66.9775 2 58.4375 10.5333 58.4375 21.0476V28.6667H54.625C50.4312 28.6667 47 32.0952 47 36.2857V74.381C47 78.5714 50.4312 82 54.625 82H100.375C104.569 82 108 78.5714 108 74.381V36.2857C108 32.0952 104.569 28.6667 100.375 28.6667ZM89.3188 28.6667H65.6812V21.0476C65.6812 14.5333 70.9806 9.2381 77.5 9.2381C84.0194 9.2381 89.3188 14.5333 89.3188 21.0476V28.6667Z" fill="#6A8F6B"/>
<rect x="2" y="46" width="145" height="27" rx="13.5" fill="#94C987"/>
<path d="M122.845 54.3011C122.077 53.9789 121.751 53.0411 122.212 52.3589C123.142 50.9947 124.697 50 126.75 50C129.004 50 130.549 51.0137 131.336 52.2832C132.007 53.3726 132.401 55.4095 131.364 56.9253C130.213 58.6021 129.11 59.1137 128.515 60.1937C128.371 60.4495 128.285 60.6579 128.227 61.0842C128.141 61.7758 127.565 62.3158 126.855 62.3158C126.021 62.3158 125.339 61.6053 125.435 60.7811C125.493 60.2979 125.608 59.7958 125.877 59.3221C126.615 58.0053 128.035 57.2284 128.86 56.0632C129.733 54.8411 129.244 52.5579 126.769 52.5579C125.646 52.5579 124.917 53.1358 124.466 53.8274C124.131 54.3674 123.43 54.5379 122.845 54.3011ZM128.678 66.1053C128.678 67.1474 127.815 68 126.759 68C125.704 68 124.841 67.1474 124.841 66.1053C124.841 65.0632 125.704 64.2105 126.759 64.2105C127.815 64.2105 128.678 65.0632 128.678 66.1053Z" fill="#FFE0C9"/>
<path d="M25 68C24.7481 68 24.537 67.9148 24.3667 67.7444C24.1963 67.5741 24.1111 67.363 24.1111 67.1111V62.1333L20.6 65.6667C20.4222 65.8444 20.2111 65.9333 19.9667 65.9333C19.7222 65.9333 19.5111 65.8444 19.3333 65.6667C19.1556 65.4889 19.0667 65.2778 19.0667 65.0333C19.0667 64.7889 19.1556 64.5778 19.3333 64.4L22.8667 60.8889H17.8889C17.637 60.8889 17.4259 60.8037 17.2556 60.6333C17.0852 60.463 17 60.2519 17 60C17 59.7481 17.0852 59.537 17.2556 59.3667C17.4259 59.1963 17.637 59.1111 17.8889 59.1111H22.8667L19.3333 55.6C19.1556 55.4222 19.0667 55.2111 19.0667 54.9667C19.0667 54.7222 19.1556 54.5111 19.3333 54.3333C19.5111 54.1556 19.7222 54.0667 19.9667 54.0667C20.2111 54.0667 20.4222 54.1556 20.6 54.3333L24.1111 57.8667V52.8889C24.1111 52.637 24.1963 52.4259 24.3667 52.2556C24.537 52.0852 24.7481 52 25 52C25.2519 52 25.463 52.0852 25.6333 52.2556C25.8037 52.4259 25.8889 52.637 25.8889 52.8889V57.8667L29.4 54.3333C29.5778 54.1556 29.7889 54.0667 30.0333 54.0667C30.2778 54.0667 30.4889 54.1556 30.6667 54.3333C30.8444 54.5111 30.9333 54.7222 30.9333 54.9667C30.9333 55.2111 30.8444 55.4222 30.6667 55.6L27.1333 59.1111H32.1111C32.363 59.1111 32.5741 59.1963 32.7444 59.3667C32.9148 59.537 33 59.7481 33 60C33 60.2519 32.9148 60.463 32.7444 60.6333C32.5741 60.8037 32.363 60.8889 32.1111 60.8889H27.1333L30.6667 64.4C30.8444 64.5778 30.9333 64.7889 30.9333 65.0333C30.9333 65.2778 30.8444 65.4889 30.6667 65.6667C30.4889 65.8444 30.2778 65.9333 30.0333 65.9333C29.7889 65.9333 29.5778 65.8444 29.4 65.6667L25.8889 62.1333V67.1111C25.8889 67.363 25.8037 67.5741 25.6333 67.7444C25.463 67.9148 25.2519 68 25 68Z" fill="white"/>
<path d="M51 68C50.7481 68 50.537 67.9148 50.3667 67.7444C50.1963 67.5741 50.1111 67.363 50.1111 67.1111V62.1333L46.6 65.6667C46.4222 65.8444 46.2111 65.9333 45.9667 65.9333C45.7222 65.9333 45.5111 65.8444 45.3333 65.6667C45.1556 65.4889 45.0667 65.2778 45.0667 65.0333C45.0667 64.7889 45.1556 64.5778 45.3333 64.4L48.8667 60.8889H43.8889C43.637 60.8889 43.4259 60.8037 43.2556 60.6333C43.0852 60.463 43 60.2519 43 60C43 59.7481 43.0852 59.537 43.2556 59.3667C43.4259 59.1963 43.637 59.1111 43.8889 59.1111H48.8667L45.3333 55.6C45.1556 55.4222 45.0667 55.2111 45.0667 54.9667C45.0667 54.7222 45.1556 54.5111 45.3333 54.3333C45.5111 54.1556 45.7222 54.0667 45.9667 54.0667C46.2111 54.0667 46.4222 54.1556 46.6 54.3333L50.1111 57.8667V52.8889C50.1111 52.637 50.1963 52.4259 50.3667 52.2556C50.537 52.0852 50.7481 52 51 52C51.2519 52 51.463 52.0852 51.6333 52.2556C51.8037 52.4259 51.8889 52.637 51.8889 52.8889V57.8667L55.4 54.3333C55.5778 54.1556 55.7889 54.0667 56.0333 54.0667C56.2778 54.0667 56.4889 54.1556 56.6667 54.3333C56.8444 54.5111 56.9333 54.7222 56.9333 54.9667C56.9333 55.2111 56.8444 55.4222 56.6667 55.6L53.1333 59.1111H58.1111C58.363 59.1111 58.5741 59.1963 58.7444 59.3667C58.9148 59.537 59 59.7481 59 60C59 60.2519 58.9148 60.463 58.7444 60.6333C58.5741 60.8037 58.363 60.8889 58.1111 60.8889H53.1333L56.6667 64.4C56.8444 64.5778 56.9333 64.7889 56.9333 65.0333C56.9333 65.2778 56.8444 65.4889 56.6667 65.6667C56.4889 65.8444 56.2778 65.9333 56.0333 65.9333C55.7889 65.9333 55.5778 65.8444 55.4 65.6667L51.8889 62.1333V67.1111C51.8889 67.363 51.8037 67.5741 51.6333 67.7444C51.463 67.9148 51.2519 68 51 68Z" fill="white"/>
<path d="M77.5 68C77.2324 68 77.0081 67.9148 76.8271 67.7444C76.6461 67.5741 76.5556 67.363 76.5556 67.1111V62.1333L72.825 65.6667C72.6361 65.8444 72.4118 65.9333 72.1521 65.9333C71.8924 65.9333 71.6681 65.8444 71.4792 65.6667C71.2903 65.4889 71.1958 65.2778 71.1958 65.0333C71.1958 64.7889 71.2903 64.5778 71.4792 64.4L75.2333 60.8889H69.9444C69.6769 60.8889 69.4525 60.8037 69.2715 60.6333C69.0905 60.463 69 60.2519 69 60C69 59.7481 69.0905 59.537 69.2715 59.3667C69.4525 59.1963 69.6769 59.1111 69.9444 59.1111H75.2333L71.4792 55.6C71.2903 55.4222 71.1958 55.2111 71.1958 54.9667C71.1958 54.7222 71.2903 54.5111 71.4792 54.3333C71.6681 54.1556 71.8924 54.0667 72.1521 54.0667C72.4118 54.0667 72.6361 54.1556 72.825 54.3333L76.5556 57.8667V52.8889C76.5556 52.637 76.6461 52.4259 76.8271 52.2556C77.0081 52.0852 77.2324 52 77.5 52C77.7676 52 77.9919 52.0852 78.1729 52.2556C78.3539 52.4259 78.4444 52.637 78.4444 52.8889V57.8667L82.175 54.3333C82.3639 54.1556 82.5882 54.0667 82.8479 54.0667C83.1076 54.0667 83.3319 54.1556 83.5208 54.3333C83.7097 54.5111 83.8042 54.7222 83.8042 54.9667C83.8042 55.2111 83.7097 55.4222 83.5208 55.6L79.7667 59.1111H85.0556C85.3231 59.1111 85.5475 59.1963 85.7285 59.3667C85.9095 59.537 86 59.7481 86 60C86 60.2519 85.9095 60.463 85.7285 60.6333C85.5475 60.8037 85.3231 60.8889 85.0556 60.8889H79.7667L83.5208 64.4C83.7097 64.5778 83.8042 64.7889 83.8042 65.0333C83.8042 65.2778 83.7097 65.4889 83.5208 65.6667C83.3319 65.8444 83.1076 65.9333 82.8479 65.9333C82.5882 65.9333 82.3639 65.8444 82.175 65.6667L78.4444 62.1333V67.1111C78.4444 67.363 78.3539 67.5741 78.1729 67.7444C77.9919 67.9148 77.7676 68 77.5 68Z" fill="white"/>
<circle cx="96" cy="59" r="2" fill="white"/>
<circle cx="104" cy="59" r="2" fill="white"/>
<circle cx="112" cy="59" r="2" fill="white"/>
</svg>
