<svg width="32" height="32" viewBox="0 0 32 32" fill="none" xmlns="http://www.w3.org/2000/svg">
<mask id="path-1-inside-1_85_425" fill="white">
<path fill-rule="evenodd" clip-rule="evenodd" d="M4.2 5.64747C2.43269 5.64747 1 7.08016 1 8.84747V18.6721C1 20.4394 2.43269 21.8721 4.2 21.8721H9.78986L14.7556 26.8389L14.7556 17.6685L14.7556 17.6686V8.84746C14.7556 7.08015 13.3229 5.64746 11.5556 5.64746L4.2 5.64747Z"/>
</mask>
<path fill-rule="evenodd" clip-rule="evenodd" d="M4.2 5.64747C2.43269 5.64747 1 7.08016 1 8.84747V18.6721C1 20.4394 2.43269 21.8721 4.2 21.8721H9.78986L14.7556 26.8389L14.7556 17.6685L14.7556 17.6686V8.84746C14.7556 7.08015 13.3229 5.64746 11.5556 5.64746L4.2 5.64747Z" fill="#6A8F6B"/>
<path d="M4.2 5.64747L4.2 6.44747L4.2 5.64747ZM9.78986 21.8721L10.3556 21.3065L10.1213 21.0721H9.78986V21.8721ZM14.7556 26.8389L14.1899 27.4045L15.5556 28.7706L15.5556 26.8389H14.7556ZM14.7556 17.6685H15.5556L15.5556 15.9395L14.2378 17.0587L14.7556 17.6685ZM14.7556 17.6686H13.9556V19.3976L15.2735 18.2783L14.7556 17.6686ZM11.5556 5.64746V4.84746H11.5556L11.5556 5.64746ZM1.8 8.84747C1.8 7.52199 2.87451 6.44747 4.2 6.44747L4.2 4.84747C1.99086 4.84747 0.2 6.63833 0.2 8.84747H1.8ZM1.8 18.6721V8.84747H0.2V18.6721H1.8ZM4.2 21.0721C2.87451 21.0721 1.8 19.9976 1.8 18.6721H0.2C0.2 20.8812 1.99086 22.6721 4.2 22.6721V21.0721ZM9.78986 21.0721H4.2V22.6721H9.78986V21.0721ZM15.3214 26.2733L10.3556 21.3065L9.22412 22.4377L14.1899 27.4045L15.3214 26.2733ZM13.9556 17.6685L13.9556 26.8389H15.5556L15.5556 17.6685H13.9556ZM15.2735 18.2783L15.2735 18.2783L14.2378 17.0587L14.2377 17.0588L15.2735 18.2783ZM13.9556 8.84746V17.6686H15.5556V8.84746H13.9556ZM11.5556 6.44746C12.8811 6.44746 13.9556 7.52198 13.9556 8.84746H15.5556C15.5556 6.63832 13.7647 4.84746 11.5556 4.84746V6.44746ZM4.2 6.44747L11.5556 6.44746L11.5556 4.84746L4.2 4.84747L4.2 6.44747Z" fill="#6A8F6B" mask="url(#path-1-inside-1_85_425)"/>
<mask id="path-3-inside-2_85_425" fill="white">
<path fill-rule="evenodd" clip-rule="evenodd" d="M27.8684 5.64746C29.6357 5.64746 31.0684 7.08015 31.0684 8.84746V18.6721C31.0684 20.4394 29.6357 21.8721 27.8684 21.8721H22.2785L17.3127 26.8389L17.3127 17.6685L17.3128 17.6686V8.84746C17.3128 7.08015 18.7455 5.64746 20.5128 5.64746H27.8684Z"/>
</mask>
<path d="M22.2785 21.8721L21.2177 20.8115L21.6571 20.3721H22.2785V21.8721ZM17.3127 26.8389L18.3735 27.8995L15.8127 30.4608L15.8127 26.8389H17.3127ZM17.3127 17.6685L15.8127 17.6685L15.8127 14.4265L18.2837 16.5252L17.3127 17.6685ZM17.3128 17.6686H18.8128V20.9105L16.3418 18.8119L17.3128 17.6686ZM29.5684 8.84746C29.5684 7.90858 28.8072 7.14746 27.8684 7.14746V4.14746C30.4641 4.14746 32.5684 6.25172 32.5684 8.84746H29.5684ZM29.5684 18.6721V8.84746H32.5684V18.6721H29.5684ZM27.8684 20.3721C28.8072 20.3721 29.5684 19.611 29.5684 18.6721H32.5684C32.5684 21.2678 30.4641 23.3721 27.8684 23.3721V20.3721ZM22.2785 20.3721H27.8684V23.3721H22.2785V20.3721ZM16.2519 25.7784L21.2177 20.8115L23.3393 22.9326L18.3735 27.8995L16.2519 25.7784ZM18.8127 17.6685L18.8127 26.8389H15.8127L15.8127 17.6685L18.8127 17.6685ZM16.3418 18.8119L16.3417 18.8118L18.2837 16.5252L18.2838 16.5253L16.3418 18.8119ZM18.8128 8.84746V17.6686H15.8128V8.84746H18.8128ZM20.5128 7.14746C19.5739 7.14746 18.8128 7.90858 18.8128 8.84746H15.8128C15.8128 6.25172 17.917 4.14746 20.5128 4.14746V7.14746ZM27.8684 7.14746H20.5128V4.14746H27.8684V7.14746Z" fill="#FFE0C9" mask="url(#path-3-inside-2_85_425)"/>
<circle cx="22" cy="10" r="1" fill="#6A8F6B"/>
<circle cx="24.5" cy="10" r="1" fill="#6A8F6B"/>
<circle cx="27" cy="10" r="1" fill="#6A8F6B"/>
</svg>
