<svg width="154" height="83" viewBox="0 0 154 83" fill="none" xmlns="http://www.w3.org/2000/svg">
<rect width="153" height="83" transform="translate(0.5)" fill="white"/>
<circle cx="76.5" cy="41" r="41" fill="#FFF3D2"/>
<path d="M48.5 41.2977V46.1069L75.8195 65L105.5 46.7939V41.2977L75.8195 20L48.5 41.2977Z" fill="#DDE7DD"/>
<path d="M51.5 13V48.1258L76.9902 65L103.5 48.1258L102.82 13H51.5Z" fill="white" stroke="#EBEBEB" stroke-width="0.5"/>
<path d="M48.5 81V45L76.1568 63.1714L105.5 45V81H48.5Z" fill="#6A8F6B"/>
<path d="M74.6729 60.4312L48.5 81H105.5L78.3396 60.3997C77.2524 59.5752 75.7458 59.5881 74.6729 60.4312Z" fill="#5C785D"/>
<path d="M72.8871 45C72.6366 45 72.4018 44.9605 72.1827 44.8816C71.9635 44.8039 71.76 44.6711 71.5722 44.4832L63.495 36.4027C63.1506 36.0582 62.9859 35.6115 63.0009 35.0628C63.0172 34.5153 63.1975 34.0693 63.5419 33.7248C63.8863 33.3803 64.3246 33.2081 64.8568 33.2081C65.389 33.2081 65.8273 33.3803 66.1717 33.7248L72.8871 40.443L88.8067 24.5168C89.1511 24.1723 89.5975 24 90.146 24C90.6932 24 91.1391 24.1723 91.4834 24.5168C91.8278 24.8613 92 25.3073 92 25.8548C92 26.4035 91.8278 26.8501 91.4834 27.1946L74.202 44.4832C74.0141 44.6711 73.8106 44.8039 73.5915 44.8816C73.3723 44.9605 73.1375 45 72.8871 45Z" fill="#FFDD7D"/>
<path d="M38.857 64.3142L22.9892 75.1726L20.852 73.3152L18.1029 70.9284L26.6442 53.7003L38.857 64.3142Z" fill="#DDE7DD"/>
<path d="M18.1279 70.9634L23.0281 75.1911" stroke="#6A8F6B"/>
<path d="M15.4027 72.8851L18.1291 70.9635L23.0293 75.1912L21.5279 78.1698L15.4027 72.8851Z" fill="#DDE7DD"/>
<path d="M114.836 64.3142L130.704 75.1726L132.841 73.3152L135.59 70.9284L127.049 53.7003L114.836 64.3142Z" fill="#DDE7DD"/>
<path d="M135.565 70.9634L130.665 75.1911" stroke="#6A8F6B"/>
<path d="M138.292 72.8851L135.565 70.9635L130.665 75.1912L132.167 78.1698L138.292 72.8851Z" fill="#DDE7DD"/>
<path d="M41.5232 28L42.5232 28.0046L43.2958 32.1151L41.5001 32.9999L41.5232 28Z" fill="#94C987"/>
<path d="M32.6257 19.4265L31.7344 19.88L31.0007 18L31.3912 17L32.6257 19.4265Z" fill="#94C987"/>
<path d="M30.179 33.271L28.7727 31.8892L30.4903 30.3874L31.3866 30.831L30.179 33.271Z" fill="#FFB78F"/>
<path d="M35.179 56.271L33.7727 54.8892L36.3866 53.831L35.179 56.271Z" fill="#FFB78F"/>
<path d="M124.382 34.8789L123.001 33.5L124.743 32.0011L125.631 32.4602L124.382 34.8789Z" fill="#94C987"/>
<path d="M115.001 39.4186L113.389 39.4187L114.639 37L115.527 37.459L115.001 39.4186Z" fill="#FFB78F"/>
<path d="M115.499 18.5L115.128 17.2173L117.798 16.6821L117.994 17.6626L115.499 18.5Z" fill="#FFB78F"/>
<path d="M72.9824 5.23755L72.3033 5.97154L70.5 5.23755L71.6787 4.03123L72.9824 5.23755Z" fill="#94C987"/>
<path d="M104.872 21.9155L103.88 21.7862L104.11 20.0249L105.501 20L104.872 21.9155Z" fill="#94C987"/>
<path d="M120.492 57.0935L119.5 56.9642L119.499 56L121.121 55.178L120.492 57.0935Z" fill="#94C987"/>
<path d="M21 25C20.8333 25.3333 20.5 26.1 20.5 26.5C20.5 27 22 27.5 22 28C22 28.4 21.1667 28.5 21 28.5" stroke="#B6CFFF"/>
<path d="M129.167 20C128.944 20.381 128.5 21.2571 128.5 21.7143C128.5 22.2857 130.5 22.8571 130.5 23.4286C130.5 23.8857 129.389 24 129.167 24" stroke="#B6CFFF"/>
<path d="M111.523 57.3713C111.777 57.6441 112.378 58.2249 112.753 58.365C113.221 58.5401 114.215 57.3102 114.683 57.4853C115.058 57.6254 114.86 58.441 114.802 58.5971" stroke="#B6CFFF"/>
<path d="M23.9822 42.8914C24.4019 42.7558 25.293 42.3991 25.5002 42.0569C25.7591 41.6292 23.7946 39.8554 24.0535 39.4277C24.2607 39.0855 25.5477 39.7477 25.7948 39.8973" stroke="#ED81AA"/>
<path d="M42.5817 54.1653C42.9411 54.0665 43.7578 53.8882 44.1502 53.9658C44.6407 54.0627 44.8403 55.6312 45.3308 55.7282C45.7232 55.8058 45.9829 55.0077 46.0153 54.8442" stroke="#B6CFFF"/>
<path d="M33.5 44L35.5 46H33.5V44Z" fill="#FFDD7D"/>
<path d="M115.5 27V30L114.5 28.5L115.5 27Z" fill="#FFDD7D"/>
<path d="M47.5 18L49.5 20L47 21L47.5 18Z" fill="#FFDD7D"/>
<path d="M110.5 48L113 47L110.5 50V48Z" fill="#FFDD7D"/>
<path d="M90.2776 9.26134L91.2221 11.7828L88.2781 9.21713L90.2776 9.26134Z" fill="#FFDD7D"/>
<path d="M56.4977 8.53288C56.278 8.83388 56.2828 9.20653 55.7554 9.92894C55.228 10.6513 53.9457 10.6381 53.617 10.5827" stroke="#ED81AA"/>
<path d="M39.5 18.5C39.8333 18.3333 40.7 17.9 41.5 17.5C42.3 17.1 42.5 16.3333 42.5 16" stroke="#B6CFFF"/>
<path d="M129.866 45.198C129.976 44.8419 130.262 43.916 130.526 43.0614C130.79 42.2068 130.374 41.5324 130.133 41.302" stroke="#ED81AA"/>
<path d="M109.5 26.5C109.833 26.3333 111.2 26.4 112 26C112.8 25.6 112.5 24.3333 112.5 24" stroke="#ED81AA"/>
</svg>
