<svg width="153" height="83" viewBox="0 0 153 83" fill="none" xmlns="http://www.w3.org/2000/svg">
<circle cx="113.496" cy="53.7378" r="26.1532" stroke="#DDE7DD" stroke-width="1.13709" stroke-dasharray="2.27 2.27"/>
<circle cx="45.2696" cy="27.5846" r="20.4677" stroke="#DDE7DD" stroke-width="1.13709" stroke-dasharray="2.27 2.27"/>
<circle cx="76.5399" cy="37.2499" r="35.2499" fill="#DDE7DD"/>
<path d="M96.5524 17.9189H56.5266C53.7749 17.9189 51.5234 20.2216 51.5234 23.0359V53.7374C51.5234 56.5517 53.7749 58.8543 56.5266 58.8543H96.5524C99.3041 58.8543 101.556 56.5517 101.556 53.7374V23.0359C101.556 20.2216 99.3041 17.9189 96.5524 17.9189ZM95.5517 28.7924L79.1912 39.2565C77.5652 40.3055 75.5138 40.3055 73.8878 39.2565L57.5273 28.7924C56.9019 28.383 56.5266 27.6923 56.5266 26.9503C56.5266 25.2361 58.3528 24.2128 59.7787 25.1082L76.5395 35.8282L93.3003 25.1082C94.7262 24.2128 96.5524 25.2361 96.5524 26.9503C96.5524 27.6923 96.1771 28.383 95.5517 28.7924Z" fill="#6A8F6B"/>
<path d="M41.7955 64.7779L41.3374 63.763L40.3226 63.3049C40.0964 63.2006 40.0964 62.8816 40.3226 62.7772L41.3374 62.3191L41.7955 61.2985C41.8999 61.0724 42.2188 61.0724 42.3232 61.2985L42.7813 62.3133L43.8019 62.7714C44.0281 62.8758 44.0281 63.1948 43.8019 63.2991L42.7871 63.7573L42.329 64.7779C42.2246 65.004 41.8999 65.004 41.7955 64.7779ZM46.4114 65.6477L47.3334 63.6181C47.5364 63.1658 48.1859 63.1658 48.3888 63.6181L49.3108 65.6477L51.3405 66.5697C51.7928 66.7785 51.7928 67.4221 51.3405 67.6251L49.3108 68.5471L48.3888 70.5767C48.1801 71.0291 47.5364 71.0291 47.3334 70.5767L46.4114 68.5471L44.3818 67.6251C43.9295 67.4163 43.9295 66.7727 44.3818 66.5697L46.4114 65.6477ZM42.329 69.417L42.7871 70.4318L43.8019 70.8899C44.0281 70.9943 44.0281 71.3132 43.8019 71.4176L42.7871 71.8757L42.329 72.8963C42.2246 73.1224 41.9057 73.1224 41.8013 72.8963L41.3432 71.8815L40.3226 71.4234C40.0964 71.319 40.0964 71.0001 40.3226 70.8957L41.3374 70.4376L41.7955 69.417C41.8999 69.1908 42.2246 69.1908 42.329 69.417Z" fill="#94C987"/>
<path d="M14.636 26.2085L27.41 17.0921C28.005 16.6701 28.8654 17.166 28.7987 17.8924L27.3155 33.5156C27.2647 34.1096 26.5967 34.4139 26.0608 34.1051L22.5774 32.1071C22.2001 31.8896 22.0267 31.4403 22.1856 31.0598L26.5315 20.2214L19.3403 29.42C19.0832 29.744 18.6075 29.8193 18.2302 29.6018L14.7549 27.5896C14.2191 27.2808 14.1475 26.5502 14.636 26.2085Z" fill="#FFE0C9"/>
<path d="M119.75 23.5903C120.849 23.5903 121.787 23.1969 122.564 22.41C123.341 21.6232 123.73 20.6732 123.73 19.5601C123.73 18.447 123.341 17.497 122.564 16.7102C121.787 15.9233 120.849 15.5299 119.75 15.5299C118.651 15.5299 117.713 15.9233 116.936 16.7102C116.159 17.497 115.77 18.447 115.77 19.5601C115.77 20.6732 116.159 21.6232 116.936 22.41C117.713 23.1969 118.651 23.5903 119.75 23.5903ZM119.75 31.5356C120.868 31.1709 121.858 30.6 122.721 29.8227C123.583 29.0455 124.336 28.1675 124.981 27.1887C124.166 26.7665 123.318 26.445 122.436 26.2243C121.555 26.0036 120.66 25.8933 119.75 25.8933C118.84 25.8933 117.945 26.0036 117.064 26.2243C116.182 26.445 115.334 26.7665 114.519 27.1887C115.164 28.1675 115.917 29.0455 116.779 29.8227C117.642 30.6 118.632 31.1709 119.75 31.5356ZM119.75 33.8386C119.617 33.8386 119.494 33.829 119.381 33.8098C119.267 33.7906 119.153 33.7618 119.039 33.7234C116.481 32.8598 114.444 31.2621 112.928 28.9303C111.411 26.5986 110.653 24.0893 110.653 21.4025V15.9617C110.653 15.4819 110.791 15.0501 111.066 14.6663C111.34 14.2825 111.696 14.0042 112.132 13.8315L118.954 11.2406C119.219 11.1447 119.485 11.0967 119.75 11.0967C120.015 11.0967 120.281 11.1447 120.546 11.2406L127.369 13.8315C127.804 14.0042 128.16 14.2825 128.435 14.6663C128.709 15.0501 128.847 15.4819 128.847 15.9617V21.4025C128.847 24.0893 128.089 26.5986 126.573 28.9303C125.057 31.2621 123.019 32.8598 120.461 33.7234C120.347 33.7618 120.233 33.7906 120.12 33.8098C120.006 33.829 119.883 33.8386 119.75 33.8386Z" fill="#FFDD7D"/>
</svg>
