<svg width="24" height="24" viewBox="0 0 24 24" fill="none" xmlns="http://www.w3.org/2000/svg">
<mask id="path-1-inside-1_138_10" fill="white">
<path fill-rule="evenodd" clip-rule="evenodd" d="M3.15 4.23584C1.82451 4.23585 0.75 5.31036 0.75 6.63585V14.0043C0.75 15.3298 1.82452 16.4043 3.15 16.4043H7.3424L11.0667 20.1294L11.0667 13.2516L11.0667 13.2517V6.63584C11.0667 5.31035 9.99216 4.23584 8.66668 4.23584L3.15 4.23584Z"/>
</mask>
<path fill-rule="evenodd" clip-rule="evenodd" d="M3.15 4.23584C1.82451 4.23585 0.75 5.31036 0.75 6.63585V14.0043C0.75 15.3298 1.82452 16.4043 3.15 16.4043H7.3424L11.0667 20.1294L11.0667 13.2516L11.0667 13.2517V6.63584C11.0667 5.31035 9.99216 4.23584 8.66668 4.23584L3.15 4.23584Z" fill="#6A8F6B"/>
<path d="M3.15 4.23584L3.15 3.63584H3.15L3.15 4.23584ZM7.3424 16.4043L7.76671 15.9801L7.59096 15.8043H7.3424V16.4043ZM11.0667 20.1294L10.6424 20.5536L11.6667 21.5782L11.6667 20.1294H11.0667ZM11.0667 13.2516H11.6667V11.9523L10.6777 12.7949L11.0667 13.2516ZM11.0667 13.2517H10.4667V14.551L11.4558 13.7084L11.0667 13.2517ZM8.66668 4.23584L8.66668 4.83584H8.66668L8.66668 4.23584ZM1.35 6.63585C1.35 5.64173 2.15589 4.83585 3.15 4.83584L3.15 3.63584C1.49314 3.63585 0.15 4.97899 0.15 6.63585H1.35ZM1.35 14.0043V6.63585H0.15V14.0043H1.35ZM3.15 15.8043C2.15589 15.8043 1.35 14.9984 1.35 14.0043H0.15C0.15 15.6612 1.49315 17.0043 3.15 17.0043V15.8043ZM7.3424 15.8043H3.15V17.0043H7.3424V15.8043ZM11.491 19.7052L7.76671 15.9801L6.91809 16.8285L10.6424 20.5536L11.491 19.7052ZM10.4667 13.2516L10.4667 20.1294H11.6667L11.6667 13.2516H10.4667ZM11.4558 13.7084L11.4558 13.7084L10.6777 12.7949L10.6776 12.7949L11.4558 13.7084ZM10.4667 6.63584V13.2517H11.6667V6.63584H10.4667ZM8.66668 4.83584C9.66079 4.83584 10.4667 5.64173 10.4667 6.63584H11.6667C11.6667 4.97898 10.3235 3.63584 8.66668 3.63584L8.66668 4.83584ZM3.15 4.83584L8.66668 4.83584L8.66668 3.63584L3.15 3.63584L3.15 4.83584Z" fill="#6A8F6B" mask="url(#path-1-inside-1_138_10)"/>
<mask id="path-3-inside-2_138_10" fill="white">
<path fill-rule="evenodd" clip-rule="evenodd" d="M20.9018 4.23584C22.2272 4.23584 23.3018 5.31036 23.3018 6.63584V14.0043C23.3018 15.3298 22.2272 16.4043 20.9018 16.4043H16.7094L12.985 20.1294L12.985 13.2516L12.9851 13.2517V6.63584C12.9851 5.31036 14.0596 4.23584 15.3851 4.23584H20.9018Z"/>
</mask>
<path d="M16.7094 16.4043L15.9138 15.6089L16.2433 15.2793H16.7094V16.4043ZM12.985 20.1294L13.7806 20.9248L11.86 22.8458L11.86 20.1294H12.985ZM12.985 13.2516H11.86L11.86 10.8154L13.7145 12.3952L12.985 13.2516ZM12.9851 13.2517H14.1101V15.6878L12.2556 14.1081L12.9851 13.2517ZM22.1768 6.63584C22.1768 5.93168 21.6059 5.36084 20.9018 5.36084V3.11084C22.8486 3.11084 24.4268 4.68904 24.4268 6.63584H22.1768ZM22.1768 14.0043V6.63584H24.4268V14.0043H22.1768ZM20.9018 15.2793C21.6059 15.2793 22.1768 14.7085 22.1768 14.0043H24.4268C24.4268 15.9511 22.8486 17.5293 20.9018 17.5293V15.2793ZM16.7094 15.2793H20.9018V17.5293H16.7094V15.2793ZM12.1894 19.334L15.9138 15.6089L17.505 17.1997L13.7806 20.9248L12.1894 19.334ZM14.11 13.2516L14.11 20.1294H11.86L11.86 13.2516H14.11ZM12.2556 14.1081L12.2555 14.108L13.7145 12.3952L13.7146 12.3953L12.2556 14.1081ZM14.1101 6.63584V13.2517H11.8601V6.63584H14.1101ZM15.3851 5.36084C14.6809 5.36084 14.1101 5.93168 14.1101 6.63584H11.8601C11.8601 4.68904 13.4383 3.11084 15.3851 3.11084V5.36084ZM20.9018 5.36084H15.3851V3.11084H20.9018V5.36084Z" fill="#6A8F6B" mask="url(#path-3-inside-2_138_10)"/>
<circle cx="16.5" cy="7.5" r="0.75" fill="#6A8F6B"/>
<circle cx="18.375" cy="7.5" r="0.75" fill="#6A8F6B"/>
<circle cx="20.25" cy="7.5" r="0.75" fill="#6A8F6B"/>
</svg>
